HIERARCHY
ROOT Joint1
{
	OFFSET 0.000000 0.000000 0.000000
	CHANNELS 6 Xposition Yposition Zposition Xrotation Yrotation Zrotation
	JOINT Joint2
	{
		OFFSET -0.000000 0.000000 1.456275
		CHANNELS 6 Xposition Yposition Zposition Xrotation Yrotation Zrotation
		JOINT Joint3
		{
			OFFSET -0.000000 0.000002 1.471446
			CHANNELS 6 Xposition Yposition Zposition Xrotation Yrotation Zrotation
			JOINT Joint4
			{
				OFFSET 0.625745 0.000000 0.917755
				CHANNELS 6 Xposition Yposition Zposition Xrotation Yrotation Zrotation
				JOINT Joint5
				{
					OFFSET -0.629534 0.000001 0.940221
					CHANNELS 6 Xposition Yposition Zposition Xrotation Yrotation Zrotation
					JOINT Joint6
					{
						OFFSET -0.000001 0.113772 1.960660
						CHANNELS 6 Xposition Yposition Zposition Xrotation Yrotation Zrotation
						JOINT Joint7
						{
							OFFSET -0.669733 -0.113771 0.388340
							CHANNELS 6 Xposition Yposition Zposition Xrotation Yrotation Zrotation
							End Site
							{
								OFFSET 0.005509 0.005509 0.438980
							}
						}
					}
				}
			}
		}
	}
}
MOTION
Frames: 27
Frame Time: 0.041667
0.000000 0.000000 0.000000 -0.000000 1.019410 135.061568 -0.000000 -0.000000 1.456275 0.000000 -0.085078 -0.000001 -0.000000 0.000002 1.471445 0.000000 -1.133460 2.891237 0.625745 0.000000 0.917755 0.000006 110.370236 -0.000007 -0.629533 0.000001 0.940221 -0.000001 1.709733 -83.267608 -0.000001 0.113772 1.960660 -88.303882 -167.860491 0.000001 -0.669733 -0.113771 0.388341 -0.243071 1.643948 -17.955570 
0.000000 0.000000 0.000000 -0.000000 1.019410 134.873464 -0.000000 0.000000 1.456275 0.000000 -0.147614 -0.000001 -0.000000 0.000002 1.471445 -0.000000 -1.133460 2.887162 0.625745 0.000000 0.917755 0.000009 110.404564 -0.000008 -0.629534 0.000001 0.940221 -0.000001 1.709734 -83.151659 -0.000000 0.113772 1.960661 -88.303882 -168.002764 -0.000001 -0.669733 -0.113771 0.388341 -0.239707 1.645672 -17.742748 
0.000000 0.000000 0.000000 -0.000000 1.019410 134.575367 -0.000000 -0.000000 1.456275 0.000000 -0.246720 -0.000001 -0.000000 0.000002 1.471446 0.000000 -1.133459 2.880705 0.625745 0.000000 0.917755 0.000007 110.458980 0.000003 -0.629534 0.000001 0.940221 -0.000002 1.709737 -82.967906 -0.000001 0.113772 1.960660 -88.303882 -168.228256 -0.000002 -0.669733 -0.113771 0.388340 -0.234389 1.648431 -17.405470 
0.000000 0.000000 0.000000 -0.000000 1.019410 134.179872 -0.000000 0.000000 1.456275 0.000000 -0.378205 -0.000004 -0.000000 0.000002 1.471446 0.000000 -1.133460 2.872139 0.625745 0.000000 0.917755 0.000012 110.531169 -0.000000 -0.629534 0.000001 0.940221 0.000000 1.709736 -82.724123 -0.000001 0.113772 1.960661 -88.303882 -168.527405 0.000003 -0.669734 -0.113771 0.388340 -0.227359 1.652138 -16.958007 
0.000000 0.000000 0.000000 -0.000000 1.019410 133.699587 -0.000000 -0.000000 1.456275 0.000000 -0.537879 0.000000 -0.000000 0.000002 1.471446 0.000000 -1.133459 2.861725 0.625745 0.000000 0.917755 -0.000002 110.618827 -0.000003 -0.629534 0.000001 0.940221 -0.000000 1.709737 -82.428068 -0.000001 0.113772 1.960661 -88.303882 -168.890689 -0.000003 -0.669733 -0.113771 0.388340 -0.218865 1.656711 -16.414603 
0.000000 0.000000 0.000000 -0.000000 1.019410 133.147120 -0.000000 0.000000 1.456275 -0.000000 -0.721553 -0.000000 -0.000000 0.000002 1.471446 -0.000000 -1.133460 2.849752 0.625745 0.000000 0.917755 0.000004 110.719661 0.000002 -0.629534 0.000001 0.940221 -0.000001 1.709735 -82.087522 -0.000001 0.113772 1.960660 -88.303882 -169.308587 -0.000002 -0.669733 -0.113771 0.388340 -0.209140 1.662076 -15.789531 
0.000000 0.000000 0.000000 -0.000000 1.019410 132.535081 -0.000000 -0.000000 1.456275 0.000000 -0.925035 0.000000 -0.000000 0.000002 1.471446 -0.000000 -1.133459 2.836493 0.625745 0.000000 0.917755 0.000014 110.831376 -0.000004 -0.629533 0.000001 0.940221 -0.000002 1.709735 -81.710250 -0.000001 0.113772 1.960660 -88.303875 -169.771537 0.000004 -0.669733 -0.113771 0.388340 -0.198443 1.668141 -15.097049 
0.000000 0.000000 0.000000 -0.000000 1.019410 131.876049 -0.000000 0.000000 1.456275 -0.000000 -1.144135 -0.000001 -0.000000 0.000002 1.471446 0.000000 -1.133460 2.822215 0.625745 0.000000 0.917755 -0.000002 110.951662 0.000004 -0.629534 0.000001 0.940220 -0.000002 1.709735 -81.304017 -0.000001 0.113771 1.960661 -88.303882 -170.270032 0.000001 -0.669733 -0.113771 0.388341 -0.187003 1.674817 -14.351404 
0.000000 0.000000 0.000000 -0.000000 1.019410 131.182635 -0.000000 0.000000 1.456275 0.000000 -1.374664 -0.000001 -0.000000 0.000002 1.471445 -0.000000 -1.133460 2.807192 0.625745 0.000000 0.917755 0.000000 111.078233 -0.000002 -0.629533 0.000001 0.940221 -0.000001 1.709737 -80.876598 -0.000001 0.113772 1.960660 -88.303882 -170.794522 -0.000000 -0.669733 -0.113771 0.388340 -0.175066 1.681999 -13.566871 
0.000000 0.000000 0.000000 -0.000000 1.019410 130.467473 -0.000000 0.000000 1.456275 0.000000 -1.612430 -0.000002 -0.000000 0.000002 1.471445 0.000000 -1.133460 2.791692 0.625745 0.000000 0.917755 -0.000000 111.208764 0.000003 -0.629533 0.000001 0.940221 0.000001 1.709736 -80.435757 -0.000001 0.113772 1.960660 -88.303882 -171.335473 0.000002 -0.669733 -0.113771 0.388340 -0.162853 1.689578 -12.757706 
0.000000 0.000000 0.000000 -0.000000 1.019410 129.733556 -0.000000 -0.000000 1.456275 -0.000000 -1.856432 -0.000002 -0.000000 0.000002 1.471445 0.000000 -1.133460 2.775791 0.625745 0.000000 0.917755 0.000010 111.342718 -0.000004 -0.629533 0.000001 0.940221 -0.000003 1.709734 -79.983353 -0.000001 0.113772 1.960661 -88.303882 -171.890631 0.000005 -0.669733 -0.113771 0.388341 -0.150436 1.697533 -11.927321 
0.000000 0.000000 0.000000 -0.000000 1.019410 128.945543 -0.000000 -0.000000 1.456275 -0.000000 -2.118413 -0.000002 -0.000000 0.000002 1.471445 -0.000000 -1.133460 2.758711 0.625745 0.000000 0.917755 0.000005 111.486548 0.000000 -0.629534 0.000001 0.940220 -0.000004 1.709736 -79.497617 -0.000001 0.113772 1.960660 -88.303875 -172.486674 0.000001 -0.669733 -0.113771 0.388340 -0.137232 1.706276 -11.035737 
0.000000 0.000000 0.000000 -0.000000 1.019410 128.058534 -0.000000 -0.000000 1.456275 -0.000000 -2.413306 -0.000000 -0.000000 0.000002 1.471446 0.000000 -1.133459 2.739498 0.625745 0.000000 0.917755 0.000011 111.648444 -0.000010 -0.629534 0.000001 0.940221 0.000001 1.709733 -78.950853 -0.000001 0.113772 1.960660 -88.303875 -173.157590 0.000003 -0.669733 -0.113771 0.388340 -0.122534 1.716359 -10.032151 
0.000000 0.000000 0.000000 -0.000000 1.019410 127.027626 -0.000000 -0.000000 1.456275 -0.000000 -2.756044 -0.000000 -0.000000 0.000002 1.471446 -0.000000 -1.133460 2.717156 0.625745 0.000000 0.917754 0.000002 111.836602 0.000007 -0.629534 0.000001 0.940221 -0.000002 1.709736 -78.315393 -0.000001 0.113772 1.960661 -88.303882 -173.937379 -0.000002 -0.669733 -0.113770 0.388340 -0.105680 1.728401 -8.865733 
0.000000 0.000000 0.000000 -0.000000 1.019410 125.807891 -0.000000 -0.000000 1.456275 -0.000000 -3.161559 -0.000001 -0.000000 0.000002 1.471446 -0.000000 -1.133460 2.690727 0.625745 0.000000 0.917755 0.000010 112.059239 0.000002 -0.629534 0.000001 0.940221 -0.000005 1.709734 -77.563533 -0.000001 0.113771 1.960661 -88.303882 -174.859987 0.000002 -0.669733 -0.113770 0.388340 -0.086055 1.743087 -7.485667 
0.000000 0.000000 0.000000 -0.000000 1.019410 124.375955 -0.000000 -0.000000 1.456275 0.000000 -3.637619 0.000001 -0.000000 0.000002 1.471446 -0.000000 -1.133460 2.659701 0.625745 0.000000 0.917755 0.000004 112.320596 -0.000001 -0.629534 0.000001 0.940221 -0.000000 1.709737 -76.680874 -0.000001 0.113772 1.960661 -88.303882 -175.943091 -0.000002 -0.669733 -0.113771 0.388340 -0.063477 1.760923 -5.865508 
0.000000 0.000000 0.000000 -0.000000 1.019410 122.794644 -0.000000 0.000000 1.456275 0.000000 -4.163344 0.000001 -0.000000 0.000002 1.471446 -0.000000 -1.133459 2.625437 0.625745 0.000000 0.917755 -0.000002 112.609220 0.000002 -0.629534 0.000001 0.940221 -0.000001 1.709734 -75.706131 -0.000001 0.113773 1.960661 -88.303882 -177.139208 0.000002 -0.669734 -0.113771 0.388340 -0.039143 1.781354 -4.076323 
0.000000 0.000000 0.000000 -0.000000 1.019410 121.148295 -0.000000 -0.000000 1.456275 0.000000 -4.710688 0.000001 -0.000000 0.000002 1.471445 0.000000 -1.133459 2.589762 0.625745 0.000000 0.917754 -0.000004 112.909714 -0.000001 -0.629534 0.000001 0.940221 -0.000004 1.709736 -74.691308 -0.000001 0.113772 1.960661 -88.303882 -178.384501 -0.000003 -0.669733 -0.113771 0.388341 -0.014499 1.803422 -2.213541 
0.000000 0.000000 0.000000 -0.000000 1.019410 119.514841 -0.000000 -0.000000 1.456275 0.000000 -5.253748 -0.000001 -0.000000 0.000002 1.471446 -0.000000 -1.133459 2.554370 0.625745 0.000000 0.917755 -0.000000 113.207858 -0.000001 -0.629534 0.000001 0.940221 -0.000002 1.709735 -73.684422 -0.000001 0.113772 1.960661 -88.303882 -179.620042 -0.000001 -0.669733 -0.113771 0.388340 0.009233 1.826096 -0.365333 
0.000000 0.000000 0.000000 -0.000000 1.019410 117.946398 -0.000000 -0.000000 1.456275 0.000000 -5.775190 0.000002 -0.000000 0.000002 1.471446 0.000000 -1.133459 2.520384 0.625745 0.000000 0.917755 0.000006 113.494132 0.000006 -0.629534 0.000001 0.940221 -0.000001 1.709737 -72.717636 -0.000001 0.113772 1.960660 -88.303875 -180.806418 -0.000001 -0.669733 -0.113771 0.388340 0.031314 1.848577 1.409314 
0.000000 0.000000 0.000000 -0.000000 1.019410 116.488699 -0.000000 0.000000 1.456275 0.000000 -6.259816 -0.000001 -0.000000 0.000002 1.471446 -0.000000 -1.133460 2.488799 0.625745 0.000000 0.917755 0.000010 113.760195 -0.000001 -0.629534 0.000001 0.940221 0.000000 1.709736 -71.819084 -0.000001 0.113772 1.960660 -88.303882 -181.909029 -0.000000 -0.669733 -0.113771 0.388340 0.051213 1.870074 3.058689 
0.000000 0.000000 0.000000 -0.000000 1.019410 115.135283 -0.000000 -0.000000 1.456275 0.000000 -6.709772 -0.000000 -0.000000 0.000002 1.471446 0.000000 -1.133459 2.459474 0.625745 0.000000 0.917755 0.000008 114.007223 -0.000003 -0.629534 0.000001 0.940221 0.000001 1.709736 -70.984831 -0.000001 0.113772 1.960660 -88.303882 -182.932765 0.000000 -0.669733 -0.113771 0.388340 0.069121 1.890540 4.590072 
0.000000 0.000000 0.000000 -0.000000 1.019410 113.671150 -0.000000 -0.000000 1.456275 0.000000 -7.196539 0.000001 -0.000000 0.000002 1.471446 0.000000 -1.133460 2.427750 0.625745 0.000000 0.917755 0.000003 114.274474 -0.000004 -0.629534 0.000001 0.940221 0.000002 1.709734 -70.082310 -0.000001 0.113772 1.960660 -88.303882 -184.040239 -0.000001 -0.669733 -0.113771 0.388341 0.087872 1.913207 6.246757 
0.000000 0.000000 0.000000 -0.000000 1.019410 111.829110 -0.000000 0.000000 1.456275 -0.000001 -7.808944 -0.000002 -0.000000 0.000002 1.471446 -0.000000 -1.133459 2.387831 0.625745 0.000000 0.917754 0.000010 114.610684 -0.000004 -0.629534 0.000001 0.940221 0.000001 1.709737 -68.946860 -0.000001 0.113772 1.960660 -88.303882 -185.433557 -0.000000 -0.669734 -0.113771 0.388340 0.110521 1.942480 8.331051 
0.000000 0.000000 0.000000 -0.000000 1.019410 109.495370 -0.000000 0.000000 1.456275 0.000000 -8.584822 0.000001 -0.000000 0.000002 1.471446 0.000000 -1.133459 2.337264 0.625745 0.000000 0.917755 0.000007 115.036641 -0.000001 -0.629534 0.000001 0.940221 0.000002 1.709736 -67.508319 -0.000001 0.113772 1.960661 -88.303882 -187.198806 0.000001 -0.669733 -0.113771 0.388341 0.137659 1.980713 10.971764 
0.000000 0.000000 0.000000 -0.000000 1.019410 107.169513 -0.000000 -0.000000 1.456275 0.000000 -9.358074 0.000001 -0.000000 0.000002 1.471446 -0.000000 -1.133460 2.286869 0.625745 0.000000 0.917755 0.000003 115.461151 -0.000003 -0.629533 0.000001 0.940221 0.000002 1.709735 -66.074635 -0.000001 0.113771 1.960660 -88.303882 -188.958071 0.000001 -0.669733 -0.113771 0.388340 0.162922 2.020030 13.603576 
0.000000 0.000000 0.000000 -0.000000 1.019410 105.346768 -0.000000 -0.000000 1.456275 0.000000 -9.964064 -0.000001 -0.000000 0.000002 1.471446 -0.000001 -1.133459 2.247371 0.625745 0.000000 0.917755 0.000004 115.793836 -0.000001 -0.629533 0.000001 0.940221 0.000002 1.709734 -64.951083 -0.000001 0.113772 1.960660 -88.303882 -190.336786 0.000003 -0.669733 -0.113771 0.388340 0.181438 2.051617 15.666133 
